<svg preserveAspectRatio="xMidYMid meet" data-bbox="16.059 7.33 489.86 114" viewBox="0 0 521.97 128.66" xmlns="http://www.w3.org/2000/svg" data-type="ugc" role="img" aria-labelledby="svgcid--1onupe-kqrthb"><title id="svgcid--1onupe-kqrthb">Evolve-logo-white</title>
    <g>
        <path d="M102.68 81H43.84v-9.14h48.81A24.76 24.76 0 0089.16 59a35.76 35.76 0 00-9.73-10.5 33.3 33.3 0 00-12-5.54 33.69 33.69 0 00-8.51-1.07q-17.62 0-27.35 15.63a33.51 33.51 0 00-5.32 18.24A30 30 0 0027 83a33.63 33.63 0 009.12 17.47A31.8 31.8 0 0053.44 109a40.52 40.52 0 005.93.46q13.07 0 23.4-9.48l1.52-1.38 7 6.12A39.89 39.89 0 0177 115.29 44.59 44.59 0 0158.91 119h-3.64c-1.73-.31-3-.51-3.8-.61a43.76 43.76 0 01-15.2-5.66 42.51 42.51 0 01-20.21-36.4 49.24 49.24 0 01.76-8q2.88-17 17.93-27.67a44.13 44.13 0 0116.11-7 50.17 50.17 0 019.27-.92A41.85 41.85 0 0181 38.07a42.92 42.92 0 0115.68 15.44q6.15 10.1 6.16 24.77z" fill="#ffffff" stroke="#ffffff" stroke-miterlimit="10" stroke-width="6"></path>
        <path d="M109.51 121.33v-10.74l64.85-32.52-64.88-32.82V34.7l85.82 43.82z" fill="#ffffff" stroke="#ffffff" stroke-miterlimit="10" stroke-width="6"></path>
        <path d="M209.26 76.29q0-18.35 12.31-30.73t30.85-12.39q18.24 0 30.7 12.39t12.46 30.73q0 18.36-12.38 30.66t-30.78 12.31q-18.39 0-30.77-12.31t-12.39-30.66zm9.57 0a32.75 32.75 0 009.73 24 33.78 33.78 0 0047.64-.08 32.66 32.66 0 009.8-23.92 32.86 32.86 0 00-9.81-24.08 33.61 33.61 0 00-47.56 0 32.86 32.86 0 00-9.8 24.08z" fill="#ffffff" stroke="#ffffff" stroke-miterlimit="10" stroke-width="6"></path>
        <path d="M309.6 117.58V7.33h10v110.25z" fill="#ffffff" stroke="#ffffff" stroke-miterlimit="10" stroke-width="6"></path>
        <path d="M333.23 34.86h10.68l32.32 65.24 32.62-65.26h10.49l-43.56 86.35z" fill="#ffffff" stroke="#ffffff" stroke-miterlimit="10" stroke-width="6"></path>
        <path d="M505.76 81h-58.84v-9.14h48.81A24.76 24.76 0 00492.24 59a35.89 35.89 0 00-9.73-10.53A35.66 35.66 0 00462 41.89q-17.62 0-27.35 15.63a33.51 33.51 0 00-5.32 18.24 30 30 0 00.76 7.2 33.63 33.63 0 009.12 17.47 31.8 31.8 0 0017.31 8.57 40.52 40.52 0 005.93.46q13.07 0 23.4-9.48l1.52-1.38 7 6.12a39.77 39.77 0 01-14.28 10.55A44.62 44.62 0 01462 119h-3.64c-1.73-.31-3-.51-3.8-.61a43.68 43.68 0 01-15.2-5.66 42.51 42.51 0 01-20.21-36.4 49.24 49.24 0 01.76-8q2.88-17 17.93-27.67a44.13 44.13 0 0116.11-7 50.17 50.17 0 019.27-.92 41.85 41.85 0 0120.9 5.36 42.92 42.92 0 0115.65 15.44q6.15 10.1 6.15 24.77z" fill="#ffffff" stroke="#ffffff" stroke-miterlimit="10" stroke-width="6"></path>
    </g>
</svg>